<mxfile host="Electron" modified="2023-06-18T13:40:38.710Z" agent="Mozilla/5.0 (X11; Linux x86_64) AppleWebKit/537.36 (KHTML, like Gecko) draw.io/21.1.2 Chrome/106.0.5249.199 Electron/21.4.3 Safari/537.36" etag="RCPlJ9ZbxLUptqZSiOmf" version="21.1.2" type="device">
  <diagram name="overview" id="J5EMipN2QuD0309S-2SP">
    <mxGraphModel dx="794" dy="544" grid="1" gridSize="10" guides="1" tooltips="1" connect="1" arrows="1" fold="1" page="1" pageScale="1" pageWidth="850" pageHeight="1100" math="0" shadow="0">
      <root>
        <mxCell id="0" />
        <mxCell id="1" parent="0" />
        <mxCell id="VDq1dd3q8uHi_eyDGigE-6" value="GitHub" style="fillColor=none;strokeColor=#5A6C86;dashed=1;verticalAlign=top;fontStyle=0;fontColor=#5A6C86;whiteSpace=wrap;html=1;" parent="1" vertex="1">
          <mxGeometry x="40" y="120" width="200" height="320" as="geometry" />
        </mxCell>
        <mxCell id="VDq1dd3q8uHi_eyDGigE-1" value="AWS central account" style="points=[[0,0],[0.25,0],[0.5,0],[0.75,0],[1,0],[1,0.25],[1,0.5],[1,0.75],[1,1],[0.75,1],[0.5,1],[0.25,1],[0,1],[0,0.75],[0,0.5],[0,0.25]];outlineConnect=0;gradientColor=none;html=1;whiteSpace=wrap;fontSize=12;fontStyle=0;container=1;pointerEvents=0;collapsible=0;recursiveResize=0;shape=mxgraph.aws4.group;grIcon=mxgraph.aws4.group_aws_cloud_alt;strokeColor=#232F3E;fillColor=none;verticalAlign=top;align=left;spacingLeft=30;fontColor=#232F3E;dashed=0;" parent="1" vertex="1">
          <mxGeometry x="280" y="120" width="200" height="320" as="geometry" />
        </mxCell>
        <mxCell id="VDq1dd3q8uHi_eyDGigE-3" value="S3 for artifacts" style="sketch=0;points=[[0,0,0],[0.25,0,0],[0.5,0,0],[0.75,0,0],[1,0,0],[0,1,0],[0.25,1,0],[0.5,1,0],[0.75,1,0],[1,1,0],[0,0.25,0],[0,0.5,0],[0,0.75,0],[1,0.25,0],[1,0.5,0],[1,0.75,0]];outlineConnect=0;fontColor=#232F3E;gradientColor=#60A337;gradientDirection=north;fillColor=#277116;strokeColor=#ffffff;dashed=0;verticalLabelPosition=bottom;verticalAlign=top;align=center;html=1;fontSize=12;fontStyle=0;aspect=fixed;shape=mxgraph.aws4.resourceIcon;resIcon=mxgraph.aws4.s3;" parent="VDq1dd3q8uHi_eyDGigE-1" vertex="1">
          <mxGeometry x="80" y="120" width="40" height="40" as="geometry" />
        </mxCell>
        <mxCell id="VDq1dd3q8uHi_eyDGigE-4" value="SSM Document" style="sketch=0;outlineConnect=0;fontColor=#232F3E;gradientColor=none;fillColor=#B0084D;strokeColor=none;dashed=0;verticalLabelPosition=bottom;verticalAlign=top;align=center;html=1;fontSize=12;fontStyle=0;aspect=fixed;pointerEvents=1;shape=mxgraph.aws4.documents;" parent="VDq1dd3q8uHi_eyDGigE-1" vertex="1">
          <mxGeometry x="83.59" y="200" width="32.82" height="40" as="geometry" />
        </mxCell>
        <mxCell id="VDq1dd3q8uHi_eyDGigE-2" value="AWS application account" style="points=[[0,0],[0.25,0],[0.5,0],[0.75,0],[1,0],[1,0.25],[1,0.5],[1,0.75],[1,1],[0.75,1],[0.5,1],[0.25,1],[0,1],[0,0.75],[0,0.5],[0,0.25]];outlineConnect=0;gradientColor=none;html=1;whiteSpace=wrap;fontSize=12;fontStyle=0;container=1;pointerEvents=0;collapsible=0;recursiveResize=0;shape=mxgraph.aws4.group;grIcon=mxgraph.aws4.group_aws_cloud_alt;strokeColor=#232F3E;fillColor=none;verticalAlign=top;align=left;spacingLeft=30;fontColor=#232F3E;dashed=0;" parent="1" vertex="1">
          <mxGeometry x="520" y="120" width="240" height="320" as="geometry" />
        </mxCell>
        <mxCell id="VDq1dd3q8uHi_eyDGigE-22" style="edgeStyle=orthogonalEdgeStyle;shape=connector;rounded=0;orthogonalLoop=1;jettySize=auto;html=1;labelBackgroundColor=default;strokeColor=#287EBA;fontFamily=Helvetica;fontSize=11;fontColor=#287EBA;endArrow=none;endFill=0;dashed=1;" parent="VDq1dd3q8uHi_eyDGigE-2" source="VDq1dd3q8uHi_eyDGigE-15" target="VDq1dd3q8uHi_eyDGigE-19" edge="1">
          <mxGeometry relative="1" as="geometry" />
        </mxCell>
        <mxCell id="VDq1dd3q8uHi_eyDGigE-15" value="Association" style="sketch=0;outlineConnect=0;fontColor=#232F3E;gradientColor=none;fillColor=#B0084D;strokeColor=none;dashed=0;verticalLabelPosition=bottom;verticalAlign=top;align=center;html=1;fontSize=12;fontStyle=0;aspect=fixed;pointerEvents=1;shape=mxgraph.aws4.state_manager;rounded=1;fontFamily=Helvetica;" parent="VDq1dd3q8uHi_eyDGigE-2" vertex="1">
          <mxGeometry x="80" y="198.49" width="40" height="40" as="geometry" />
        </mxCell>
        <mxCell id="VDq1dd3q8uHi_eyDGigE-19" value="EC2&lt;br&gt;instance" style="sketch=0;points=[[0,0,0],[0.25,0,0],[0.5,0,0],[0.75,0,0],[1,0,0],[0,1,0],[0.25,1,0],[0.5,1,0],[0.75,1,0],[1,1,0],[0,0.25,0],[0,0.5,0],[0,0.75,0],[1,0.25,0],[1,0.5,0],[1,0.75,0]];outlineConnect=0;fontColor=#232F3E;gradientColor=#F78E04;gradientDirection=north;fillColor=#D05C17;strokeColor=#ffffff;dashed=0;verticalLabelPosition=bottom;verticalAlign=top;align=center;html=1;fontSize=12;fontStyle=0;aspect=fixed;shape=mxgraph.aws4.resourceIcon;resIcon=mxgraph.aws4.compute;rounded=1;fontFamily=Helvetica;" parent="VDq1dd3q8uHi_eyDGigE-2" vertex="1">
          <mxGeometry x="80" y="80" width="40" height="40" as="geometry" />
        </mxCell>
        <mxCell id="VDq1dd3q8uHi_eyDGigE-5" value="" style="dashed=0;outlineConnect=0;html=1;align=center;labelPosition=center;verticalLabelPosition=bottom;verticalAlign=top;shape=mxgraph.weblogos.github" parent="1" vertex="1">
          <mxGeometry x="20" y="100" width="40" height="40" as="geometry" />
        </mxCell>
        <mxCell id="VDq1dd3q8uHi_eyDGigE-10" value="deploy" style="edgeStyle=orthogonalEdgeStyle;shape=connector;rounded=0;orthogonalLoop=1;jettySize=auto;html=1;labelBackgroundColor=default;strokeColor=#287EBA;fontFamily=Helvetica;fontSize=11;fontColor=#287EBA;endArrow=blockThin;endFill=1;" parent="1" source="VDq1dd3q8uHi_eyDGigE-9" target="VDq1dd3q8uHi_eyDGigE-3" edge="1">
          <mxGeometry relative="1" as="geometry">
            <Array as="points">
              <mxPoint x="340" y="260" />
              <mxPoint x="340" y="260" />
            </Array>
            <mxPoint as="offset" />
          </mxGeometry>
        </mxCell>
        <mxCell id="VDq1dd3q8uHi_eyDGigE-9" value="Actions Workflow" style="rounded=1;whiteSpace=wrap;html=1;strokeColor=#287EBA;fontColor=#287EBA;" parent="1" vertex="1">
          <mxGeometry x="80" y="240" width="120" height="40" as="geometry" />
        </mxCell>
        <mxCell id="VDq1dd3q8uHi_eyDGigE-13" style="edgeStyle=orthogonalEdgeStyle;shape=connector;rounded=0;orthogonalLoop=1;jettySize=auto;html=1;labelBackgroundColor=default;strokeColor=#287EBA;fontFamily=Helvetica;fontSize=11;fontColor=#287EBA;endArrow=blockThin;endFill=1;" parent="1" source="VDq1dd3q8uHi_eyDGigE-11" target="VDq1dd3q8uHi_eyDGigE-9" edge="1">
          <mxGeometry relative="1" as="geometry" />
        </mxCell>
        <mxCell id="VDq1dd3q8uHi_eyDGigE-11" value="" style="sketch=0;pointerEvents=1;shadow=0;dashed=0;html=1;strokeColor=none;fillColor=#287EBA;labelPosition=center;verticalLabelPosition=bottom;verticalAlign=top;outlineConnect=0;align=center;shape=mxgraph.office.concepts.script;rounded=1;fontFamily=Helvetica;fontSize=11;fontColor=#287EBA;aspect=fixed;" parent="1" vertex="1">
          <mxGeometry x="120" y="161.51" width="40" height="36.98" as="geometry" />
        </mxCell>
        <mxCell id="VDq1dd3q8uHi_eyDGigE-20" style="edgeStyle=orthogonalEdgeStyle;shape=connector;rounded=0;orthogonalLoop=1;jettySize=auto;html=1;labelBackgroundColor=default;strokeColor=#287EBA;fontFamily=Helvetica;fontSize=11;fontColor=#287EBA;endArrow=blockThin;endFill=1;" parent="1" source="VDq1dd3q8uHi_eyDGigE-16" target="VDq1dd3q8uHi_eyDGigE-19" edge="1">
          <mxGeometry relative="1" as="geometry">
            <mxPoint x="660" y="340" as="targetPoint" />
            <Array as="points">
              <mxPoint x="680" y="220" />
            </Array>
          </mxGeometry>
        </mxCell>
        <mxCell id="VDq1dd3q8uHi_eyDGigE-16" value="Run Command" style="sketch=0;outlineConnect=0;fontColor=#232F3E;gradientColor=none;fillColor=#B0084D;strokeColor=none;dashed=0;verticalLabelPosition=bottom;verticalAlign=top;align=center;html=1;fontSize=12;fontStyle=0;aspect=fixed;pointerEvents=1;shape=mxgraph.aws4.run_command;rounded=1;fontFamily=Helvetica;" parent="1" vertex="1">
          <mxGeometry x="660" y="264.89" width="40" height="28.21" as="geometry" />
        </mxCell>
        <mxCell id="VDq1dd3q8uHi_eyDGigE-21" style="edgeStyle=orthogonalEdgeStyle;shape=connector;rounded=0;orthogonalLoop=1;jettySize=auto;html=1;labelBackgroundColor=default;strokeColor=#287EBA;fontFamily=Helvetica;fontSize=11;fontColor=#287EBA;endArrow=none;endFill=0;dashed=1;" parent="1" source="VDq1dd3q8uHi_eyDGigE-4" target="VDq1dd3q8uHi_eyDGigE-15" edge="1">
          <mxGeometry relative="1" as="geometry">
            <Array as="points">
              <mxPoint x="580" y="340" />
              <mxPoint x="580" y="340" />
            </Array>
          </mxGeometry>
        </mxCell>
        <mxCell id="VDq1dd3q8uHi_eyDGigE-23" style="edgeStyle=orthogonalEdgeStyle;shape=connector;rounded=0;orthogonalLoop=1;jettySize=auto;html=1;labelBackgroundColor=default;strokeColor=#287EBA;fontFamily=Helvetica;fontSize=11;fontColor=#287EBA;endArrow=blockThin;endFill=1;" parent="1" source="VDq1dd3q8uHi_eyDGigE-15" target="VDq1dd3q8uHi_eyDGigE-16" edge="1">
          <mxGeometry relative="1" as="geometry" />
        </mxCell>
      </root>
    </mxGraphModel>
  </diagram>
</mxfile>
